<svg viewBox="-30 -30 60 60" xmlns="http://www.w3.org/2000/svg">
    <style>
        .bg {
            fill: white;
            stroke: white;
            stroke-width: 6;
            stroke-linejoin: round;
        }

        .fg {
            fill: black;
            stroke: black;
            stroke-width: 4;
            stroke-linejoin: round;
        }
    </style>
    <path class="bg" d="
        M -20,-20 L 20,-20 0,-20 L 0,20 0,0 -20,0 -20,20 -20,0 20,0 20,20 20,0 0,0 0,-20 -20,-20 Z
    " />
    <circle class="bg" cx="-20" cy="-20" r="7" />
    <circle class="bg" cx="20" cy="-20" r="7" />
    <circle class="bg" cx="-20" cy="20" r="6" />
    <circle class="bg" cx="0" cy="20" r="6" />
    <circle class="bg" cx="20" cy="20" r="6" />
    <path class="fg" d="
        M -20,-20 L 20,-20 0,-20 L 0,20 0,0 -20,0 -20,20 -20,0 20,0 20,20 20,0 0,0 0,-20 -20,-20 Z
    " />
    <circle class="fg" cx="-20" cy="-20" r="6" />
    <circle class="fg" cx="20" cy="-20" r="6" />
    <circle class="fg" cx="-20" cy="20" r="5" />
    <circle class="fg" cx="0" cy="20" r="5" />
    <circle class="fg" cx="20" cy="20" r="5" />
</svg>